<?xml version="1.0" encoding="UTF-8"?>
<svg width="156.74mm" height="102.42mm" version="1.1" viewBox="0 0 156.74 102.42" xmlns="http://www.w3.org/2000/svg" xmlns:cc="http://creativecommons.org/ns#" xmlns:dc="http://purl.org/dc/elements/1.1/" xmlns:rdf="http://www.w3.org/1999/02/22-rdf-syntax-ns#">
 <defs>
  <clipPath id="clipPath34">
   <path d="M 0,1275.59 H 907.09 V 0 H 0 Z"/>
  </clipPath>
 </defs>
 <metadata>
  <rdf:RDF>
   <cc:Work rdf:about="">
    <dc:format>image/svg+xml</dc:format>
    <dc:type rdf:resource="http://purl.org/dc/dcmitype/StillImage"/>
    <dc:title/>
   </cc:Work>
  </rdf:RDF>
 </metadata>
 <g transform="translate(-27.086 -29.737)">
  <g transform="matrix(.35278 0 0 -.35278 -54.545 454.51)">
   <g clip-path="url(#clipPath34)">
    <path d="m441.52 1165.3h-151.51v-20.243h151.51zm0 38.73h-189.9v-20.243h189.9zm74.813-164.87h39.762c7.311 0 14.165 1.424 20.566 4.283 6.395 2.855 11.997 6.684 16.795 11.483 4.8 4.799 8.624 10.396 11.483 16.797 2.855 6.394 4.285 13.25 4.285 20.566 0 7.311-1.43 14.225-4.285 20.737-2.859 6.512-6.683 12.168-11.483 16.967-4.798 4.799-10.4 8.569-16.795 11.312-6.401 2.741-13.255 4.113-20.566 4.113h-39.762zm151.5 53.129c0-17.139-3.519-32.966-10.552-47.475-7.036-14.514-16.606-26.907-28.716-37.189l47.123-93.92h-22.702l-41.368 81.923c-2.518-1.371-4.971-2.63-7.369-3.771-2.4-1.146-4.858-2.175-7.37-3.086l37.528-75.066h-22.28l-34.785 68.897c-6.856-1.371-13.941-2.057-21.252-2.057h-39.762v-66.84h-20.222v66.84h-17.825v-66.84h-20.224v87.064h98.033c12.565 0 24.39 2.399 35.477 7.198 11.081 4.799 20.791 11.364 29.135 19.708 8.339 8.34 14.911 18.05 19.71 29.137 4.799 11.08 7.198 22.906 7.198 35.477 0 12.564-2.399 24.39-7.188 35.476-4.788 11.081-11.343 20.791-19.667 29.135-8.323 8.34-18.017 14.911-29.076 19.71-11.065 4.798-22.865 7.198-35.402 7.198h-77.996v-144.65h17.825v126.48h59.984c10.052 0 19.538-1.944 28.45-5.827 8.911-3.888 16.679-9.142 23.309-15.768 6.625-6.63 11.878-14.396 15.766-23.307 3.882-8.912 5.828-18.398 5.828-28.45 0-10.059-1.946-19.538-5.828-28.45-3.888-8.913-9.141-16.684-15.766-23.309-6.63-6.63-14.398-11.884-23.309-15.766-8.912-3.889-18.398-5.828-28.45-5.828l-98.033 0.342v184.75h98.194c15.333 0 29.751-2.914 43.258-8.741 13.503-5.827 25.348-13.829 35.535-23.994 10.187-10.17 18.194-22.055 24.032-35.648 5.838-13.598 8.757-28.054 8.757-43.36m-436.44-91.52h256.1v-20.223h-197.48v-66.841h-20.223v66.841h-18.167v-66.841h-20.224zm20.224 144.2v-105.57h18.167v125.91h20.222l1e-3 -59.066v-66.84l197.48-0.248v-19.976h-256.1v184.86h20.224z" fill="#1d1d1b"/>
   </g>
  </g>
 </g>
</svg>
